# Alias OBJ Model File
# Exported from SketchUp, (c) 2000-2012 Trimble Navigation Limited
# File units = millimeters

mtllib 螺丝调平支架.mtl

g Mesh1 Model

usemtl FrontColor
v 168 0 -96
vt -6.61417 3.77953
vn 0 -1 -0
v 168 0 -0
vt -6.61417 0
v 148 0 -0
vt -5.82677 0
v 148 0 -96
vt -5.82677 3.77953
f 1/1/1 2/2/1 3/3/1 4/4/1 

v 168 18.0681 -47.4824
vt 1.86938 0.711344
vn 1 0 -0
vt 0 0
vt 3.77953 0
f 5/5/2 2/6/2 1/7/2

v 168 18.2679 -47
vt 1.85039 0.719211
f 6/8/2 2/6/2 5/5/2

v 168 18.5858 -46.5858
vt 1.83409 0.731724
f 7/9/2 2/6/2 6/8/2

v 168 19 -46.2679
vt 1.82157 0.748031
f 8/10/2 2/6/2 7/9/2

v 168 19.4824 -46.0681
vt 1.81371 0.767022
f 9/11/2 2/6/2 8/10/2

v 168 167 -0
vt 0 6.5748
f 2/6/2 9/11/2 10/12/2

v 168 20 -46
vt 1.81102 0.787402
f 10/12/2 9/11/2 11/13/2

vt -6.61417 0.544279
vn 0 0.130526 -0.991445
vt -6.61417 0.523724
vn 0 0.258819 -0.965926
v 148 19.4824 -46.0681
vt -5.82677 0.523724
v 148 20 -46
vt -5.82677 0.544279
f 11/14/3 9/15/4 12/16/4 13/17/3 

vt -6.61417 0.0145606
vt -6.61417 -0.00599474
vn 0 0.5 -0.866025
v 148 19 -46.2679
vt -5.82677 -0.00599474
vt -5.82677 0.0145606
f 9/18/4 8/19/5 14/20/5 12/21/4 

vt -6.61417 -0.51545
vt -6.61417 -0.536005
vn 0 0.707107 -0.707107
v 148 18.5858 -46.5858
vt -5.82677 -0.536005
vt -5.82677 -0.51545
f 8/22/5 7/23/6 15/24/6 14/25/5 

vt -6.61417 -1.00963
vt -6.61417 -1.03019
vn 0 0.866025 -0.5
v 148 18.2679 -47
vt -5.82677 -1.03019
vt -5.82677 -1.00963
f 7/26/6 6/27/7 16/28/7 15/29/6 

vt -6.61417 -1.43431
vt -6.61417 -1.45487
vn 0 0.965926 -0.258819
v 148 18.0681 -47.4824
vt -5.82677 -1.45487
vt -5.82677 -1.43431
f 6/30/7 5/31/8 17/32/8 16/33/7 

vt -6.61417 -1.76054
v 168 18 -48
vt -6.61417 -1.7811
vn 0 1 5.34706e-15
v 148 18 -48
vt -5.82677 -1.7811
vt -5.82677 -1.76054
f 5/34/8 18/35/9 19/36/9 17/37/8 

vt 1.88976 0.708661
f 5/5/2 1/7/2 18/38/2

v 168 18.0681 -48.5176
vt 1.91014 0.711344
f 18/38/2 1/7/2 20/39/2

v 168 18.2679 -49
vt 1.92913 0.719211
f 20/39/2 1/7/2 21/40/2

v 168 18.5858 -49.4142
vt 1.94544 0.731724
f 21/40/2 1/7/2 22/41/2

v 168 19 -49.7321
vt 1.95795 0.748031
f 22/41/2 1/7/2 23/42/2

v 168 19.4824 -49.9319
vt 1.96582 0.767022
f 23/42/2 1/7/2 24/43/2

v 168 20 -50
vt 1.9685 0.787402
f 24/43/2 1/7/2 25/44/2

v 168 157 -50
vt 1.9685 6.1811
f 25/44/2 1/7/2 26/45/2

v 168 167 -96
vt 3.77953 6.5748
f 27/46/2 26/45/2 1/7/2

v 168 157.518 -49.9319
vt 1.96582 6.20148
f 27/46/2 28/47/2 26/45/2

v 168 158 -49.7321
vt 1.95795 6.22047
f 27/46/2 29/48/2 28/47/2

v 168 158.414 -49.4142
vt 1.94544 6.23678
f 27/46/2 30/49/2 29/48/2

v 168 158.732 -49
vt 1.92913 6.24929
f 27/46/2 31/50/2 30/49/2

v 168 158.932 -48.5176
vt 1.91014 6.25716
f 27/46/2 32/51/2 31/50/2

v 168 159 -48
vt 1.88976 6.25984
f 27/46/2 33/52/2 32/51/2

v 168 158.932 -47.4824
vt 1.86938 6.25716
f 27/46/2 34/53/2 33/52/2

f 10/12/2 34/53/2 27/46/2

v 168 158.732 -47
vt 1.85039 6.24929
f 34/53/2 10/12/2 35/54/2

v 168 158.414 -46.5858
vt 1.83409 6.23678
f 35/54/2 10/12/2 36/55/2

v 168 158 -46.2679
vt 1.82157 6.22047
f 36/55/2 10/12/2 37/56/2

v 168 157.518 -46.0681
vt 1.81371 6.20148
f 37/56/2 10/12/2 38/57/2

v 168 157 -46
vt 1.81102 6.1811
f 38/57/2 10/12/2 39/58/2

f 39/58/2 10/12/2 11/13/2

vt -6.61417 6.1811
vn 0 0 -1
vt -6.61417 0.787402
vt -5.82677 0.787402
v 148 157 -46
vt -5.82677 6.1811
f 39/59/10 11/60/10 13/61/10 40/62/10 

vt -1.81102 0.787402
vn -1 0 -0
v 148 15 -0
vt 0 0.590551
vt -1.81102 6.1811
f 13/63/11 41/64/11 40/65/11

vt -1.81371 0.767022
f 12/66/11 41/64/11 13/63/11

vt -1.82157 0.748031
f 14/67/11 41/64/11 12/66/11

vt -1.83409 0.731724
f 15/68/11 41/64/11 14/67/11

vt -1.85039 0.719211
f 16/69/11 41/64/11 15/68/11

vt -1.86938 0.711344
f 17/70/11 41/64/11 16/69/11

vt -1.88976 0.708661
f 19/71/11 41/64/11 17/70/11

v 148 15 -96
vt -3.77953 0.590551
f 41/64/11 19/71/11 42/72/11

v 148 18.0681 -48.5176
vt -1.91014 0.711344
f 42/72/11 19/71/11 43/73/11

vt 6.61417 1.9661
vt 6.61417 1.98665
vn 0 0.965926 0.258819
vt 5.82677 1.98665
vt 5.82677 1.9661
f 18/74/9 20/75/12 43/76/12 19/77/9 

vt 6.61417 2.03696
vt 6.61417 2.05752
vn 0 0.866025 0.5
v 148 18.2679 -49
vt 5.82677 2.05752
vt 5.82677 2.03696
f 20/78/12 21/79/13 44/80/13 43/81/12 

vt 6.61417 1.96831
vt 6.61417 1.98887
vn 0 0.707107 0.707107
v 148 18.5858 -49.4142
vt 5.82677 1.98887
vt 5.82677 1.96831
f 21/82/13 22/83/14 45/84/14 44/85/13 

vt 6.61417 1.76483
vt 6.61417 1.78538
vn 0 0.5 0.866025
v 148 19 -49.7321
vt 5.82677 1.78538
vt 5.82677 1.76483
f 22/86/14 23/87/15 46/88/15 45/89/14 

vt 6.61417 1.44037
vt 6.61417 1.46092
vn 0 0.258819 0.965926
v 148 19.4824 -49.9319
vt 5.82677 1.46092
vt 5.82677 1.44037
f 23/90/15 24/91/16 47/92/16 46/93/15 

vt 6.61417 1.01705
vt 6.61417 1.03761
vn 0 0.130526 0.991445
v 148 20 -50
vt 5.82677 1.03761
vt 5.82677 1.01705
f 24/94/16 25/95/17 48/96/17 47/97/16 

vt 6.61417 0.787402
vn 0 0 1
vt 6.61417 6.1811
v 148 157 -50
vt 5.82677 6.1811
vt 5.82677 0.787402
f 25/98/18 26/99/18 49/100/18 48/101/18 

vt 6.61417 5.87128
vn 0 -0.130526 0.991445
vt 6.61417 5.89184
vn 0 -0.258819 0.965926
v 148 157.518 -49.9319
vt 5.82677 5.89184
vt 5.82677 5.87128
f 26/102/19 28/103/20 50/104/20 49/105/19 

vt 6.61417 4.97714
vt 6.61417 4.99769
vn 0 -0.5 0.866025
v 148 158 -49.7321
vt 5.82677 4.99769
vt 5.82677 4.97714
f 28/106/20 29/107/21 51/108/21 50/109/20 

vt 6.61417 3.74311
vt 6.61417 3.76366
vn 0 -0.707107 0.707107
v 148 158.414 -49.4142
vt 5.82677 3.76366
vt 5.82677 3.74311
f 29/110/21 30/111/22 52/112/22 51/113/21 

vt 6.61417 2.25329
vt 6.61417 2.27384
vn 0 -0.866025 0.5
v 148 158.732 -49
vt 5.82677 2.27384
vt 5.82677 2.25329
f 30/114/22 31/115/23 53/116/23 52/117/22 

vt 6.61417 0.609214
vt 6.61417 0.629769
vn 0 -0.965926 0.258819
v 148 158.932 -48.5176
vt 5.82677 0.629769
vt 5.82677 0.609214
f 31/118/23 32/119/24 54/120/24 53/121/23 

vt 6.61417 -1.07708
vt 6.61417 -1.05652
v 148 159 -48
vt 5.82677 -1.05652
vt 5.82677 -1.07708
f 32/122/24 33/123/1 55/124/1 54/125/24 

vt -6.61417 2.69067
vt -6.61417 2.67011
vn 0 -0.965926 -0.258819
v 148 158.932 -47.4824
vt -5.82677 2.67011
vt -5.82677 2.69067
f 33/126/1 34/127/25 56/128/25 55/129/1 

vt -6.61417 4.1216
vt -6.61417 4.10104
vn 0 -0.866025 -0.5
v 148 158.732 -47
vt -5.82677 4.10104
vt -5.82677 4.1216
f 34/130/25 35/131/26 57/132/26 56/133/25 

vt -6.61417 5.27234
vt -6.61417 5.25179
vn 0 -0.707107 -0.707107
v 148 158.414 -46.5858
vt -5.82677 5.25179
vt -5.82677 5.27234
f 35/134/26 36/135/27 58/136/27 57/137/26 

vt -6.61417 6.06449
vt -6.61417 6.04394
vn 0 -0.5 -0.866025
v 148 158 -46.2679
vt -5.82677 6.04394
vt -5.82677 6.06449
f 36/138/27 37/139/28 59/140/28 58/141/27 

vt -6.61417 6.44405
vt -6.61417 6.4235
vn 0 -0.258819 -0.965926
v 148 157.518 -46.0681
vt -5.82677 6.4235
vt -5.82677 6.44405
f 37/142/28 38/143/29 60/144/29 59/145/28 

vt -6.61417 6.38516
vt -6.61417 6.36461
vn 0 -0.130526 -0.991445
vt -5.82677 6.36461
vt -5.82677 6.38516
f 38/146/29 39/147/30 40/148/30 60/149/29 

vt -1.81371 6.20148
f 41/64/11 60/150/11 40/65/11

v 148 167 -0
f 61/12/11 60/150/11 41/64/11

vt -1.82157 6.22047
f 60/150/11 61/12/11 59/151/11

vt -1.83409 6.23678
f 59/151/11 61/12/11 58/152/11

vt -1.85039 6.24929
f 58/152/11 61/12/11 57/153/11

vt -1.86938 6.25716
f 57/153/11 61/12/11 56/154/11

v 148 167 -96
vt -3.77953 6.5748
f 56/154/11 61/12/11 62/155/11

vt 6.61417 0
vn 0 1 -0
vt 6.61417 3.77953
vt 5.82677 3.77953
vt 5.82677 0
f 10/156/31 27/157/31 62/158/31 61/159/31 

vt -5.82677 0.590551
vt -5.82677 6.5748
vt -6.61417 6.5748
f 1/2/10 4/3/10 42/160/10 62/161/10 27/162/10 

v 0 0 -96
vt 5.82677 0.590551
v 0 15 -96
f 63/6/18 4/159/18 42/163/18 64/64/18 

v 0 15 -0
vt 0 3.77953
f 65/6/1 64/164/1 42/4/1 41/3/1 

v 2.81997e-15 18 -48
f 65/64/11 66/71/11 64/72/11

v 2.81997e-15 18.0681 -47.4824
f 66/71/11 65/64/11 67/70/11

v 2.81997e-15 18.2679 -47
f 67/70/11 65/64/11 68/69/11

v 2.81997e-15 18.5858 -46.5858
f 68/69/11 65/64/11 69/68/11

v 2.81997e-15 19 -46.2679
f 69/68/11 65/64/11 70/67/11

v 2.81997e-15 19.4824 -46.0681
f 70/67/11 65/64/11 71/66/11

v 2.81997e-15 20 -46
f 71/66/11 65/64/11 72/63/11

v 2.81997e-15 157 -46
f 72/63/11 65/64/11 73/65/11

v 2.81997e-15 157.518 -46.0681
f 65/64/11 74/150/11 73/65/11

v 0 167 -0
f 75/12/11 74/150/11 65/64/11

v 2.81997e-15 158 -46.2679
f 74/150/11 75/12/11 76/151/11

v 2.81997e-15 158.414 -46.5858
f 76/151/11 75/12/11 77/152/11

v 2.81997e-15 158.732 -47
f 77/152/11 75/12/11 78/153/11

v 2.81997e-15 158.932 -47.4824
f 78/153/11 75/12/11 79/154/11

v 0 167 -96
f 79/154/11 75/12/11 80/155/11

v -20 167 -0
vt 0.787402 0
v -20 167 -96
vt 0.787402 3.77953
f 80/164/1 75/6/1 81/165/1 82/166/1 

v 0 0 -0
v -20 0 -0
vt 0.787402 6.5748
f 83/6/10 84/165/10 81/167/10 75/12/10 65/64/10 

v -20 19.4824 -46.0681
f 84/6/2 85/11/2 81/12/2

v -20 19 -46.2679
f 85/11/2 84/6/2 86/10/2

v -20 18.5858 -46.5858
f 86/10/2 84/6/2 87/9/2

v -20 18.2679 -47
f 87/9/2 84/6/2 88/8/2

v -20 18.0681 -47.4824
f 88/8/2 84/6/2 89/5/2

v -20 0 -96
f 89/5/2 84/6/2 90/7/2

v -20 18 -48
f 89/5/2 90/7/2 91/38/2

v -20 18.0681 -48.5176
f 91/38/2 90/7/2 92/39/2

v -20 18.2679 -49
f 92/39/2 90/7/2 93/40/2

v -20 18.5858 -49.4142
f 93/40/2 90/7/2 94/41/2

v -20 19 -49.7321
f 94/41/2 90/7/2 95/42/2

v -20 19.4824 -49.9319
f 95/42/2 90/7/2 96/43/2

v -20 20 -50
f 96/43/2 90/7/2 97/44/2

v -20 157 -50
f 97/44/2 90/7/2 98/45/2

f 82/46/2 98/45/2 90/7/2

v -20 157.518 -49.9319
f 82/46/2 99/47/2 98/45/2

v -20 158 -49.7321
f 82/46/2 100/48/2 99/47/2

v -20 158.414 -49.4142
f 82/46/2 101/49/2 100/48/2

v -20 158.732 -49
f 82/46/2 102/50/2 101/49/2

v -20 158.932 -48.5176
f 82/46/2 103/51/2 102/50/2

v -20 159 -48
f 82/46/2 104/52/2 103/51/2

v -20 158.932 -47.4824
f 82/46/2 105/53/2 104/52/2

f 81/12/2 105/53/2 82/46/2

v -20 158.732 -47
f 105/53/2 81/12/2 106/54/2

v -20 158.414 -46.5858
f 106/54/2 81/12/2 107/55/2

v -20 158 -46.2679
f 107/55/2 81/12/2 108/56/2

v -20 157.518 -46.0681
f 108/56/2 81/12/2 109/57/2

v -20 157 -46
f 109/57/2 81/12/2 110/58/2

v -20 20 -46
f 110/58/2 81/12/2 111/13/2

f 81/12/2 85/11/2 111/13/2

vt -0.787402 0.544279
vt -0.787402 0.523724
vt 1.11022e-16 0.523724
vt 1.11022e-16 0.544279
f 111/168/19 85/169/20 71/170/20 72/171/19 

vt -0.787402 0.0145606
vt -0.787402 -0.00599474
vt 1.11022e-16 -0.00599474
vt 1.11022e-16 0.0145606
f 85/172/20 86/173/21 70/174/21 71/175/20 

vt -0.787402 -0.51545
vt -0.787402 -0.536005
vt 1.11022e-16 -0.536005
vt 1.11022e-16 -0.51545
f 86/176/21 87/177/22 69/178/22 70/179/21 

vt -0.787402 -1.00963
vt -0.787402 -1.03019
vt 1.11022e-16 -1.03019
vt 1.11022e-16 -1.00963
f 87/180/22 88/181/23 68/182/23 69/183/22 

vt -0.787402 -1.43431
vt -0.787402 -1.45487
vt 1.11022e-16 -1.45487
vt 1.11022e-16 -1.43431
f 88/184/23 89/185/24 67/186/24 68/187/23 

vt -0.787402 -1.76054
vt -0.787402 -1.7811
vn 0 -1 6.99877e-16
vt 1.11022e-16 -1.7811
vt 1.11022e-16 -1.76054
f 89/188/24 91/189/32 66/190/32 67/191/24 

vt 0.787402 1.9661
vt 0.787402 1.98665
v 2.81997e-15 18.0681 -48.5176
vt -1.11022e-16 1.98665
vt -1.11022e-16 1.9661
f 91/192/32 92/193/25 112/194/25 66/195/32 

vt 0.787402 2.03696
vt 0.787402 2.05752
v 2.81997e-15 18.2679 -49
vt -1.11022e-16 2.05752
vt -1.11022e-16 2.03696
f 92/196/25 93/197/26 113/198/26 112/199/25 

vt 0.787402 1.96831
vt 0.787402 1.98887
v 2.81997e-15 18.5858 -49.4142
vt -1.11022e-16 1.98887
vt -1.11022e-16 1.96831
f 93/200/26 94/201/27 114/202/27 113/203/26 

vt 0.787402 1.76483
vt 0.787402 1.78538
v 2.81997e-15 19 -49.7321
vt -1.11022e-16 1.78538
vt -1.11022e-16 1.76483
f 94/204/27 95/205/28 115/206/28 114/207/27 

vt 0.787402 1.44037
vt 0.787402 1.46092
v 2.81997e-15 19.4824 -49.9319
vt -1.11022e-16 1.46092
vt -1.11022e-16 1.44037
f 95/208/28 96/209/29 116/210/29 115/211/28 

vt 0.787402 1.01705
vt 0.787402 1.03761
v 2.81997e-15 20 -50
vt -1.11022e-16 1.03761
vt -1.11022e-16 1.01705
f 96/212/29 97/213/30 117/214/30 116/215/29 

vt 0.787402 0.787402
vt 0.787402 6.1811
v 2.81997e-15 157 -50
vt -1.11022e-16 6.1811
vt -1.11022e-16 0.787402
f 97/216/10 98/217/10 118/218/10 117/219/10 

vt 0.787402 5.87128
vt 0.787402 5.89184
v 2.81997e-15 157.518 -49.9319
vt -1.11022e-16 5.89184
vt -1.11022e-16 5.87128
f 98/220/3 99/221/4 119/222/4 118/223/3 

vt 0.787402 4.97714
vt 0.787402 4.99769
v 2.81997e-15 158 -49.7321
vt -1.11022e-16 4.99769
vt -1.11022e-16 4.97714
f 99/224/4 100/225/5 120/226/5 119/227/4 

vt 0.787402 3.74311
vt 0.787402 3.76366
v 2.81997e-15 158.414 -49.4142
vt -1.11022e-16 3.76366
vt -1.11022e-16 3.74311
f 100/228/5 101/229/6 121/230/6 120/231/5 

vt 0.787402 2.25329
vt 0.787402 2.27384
v 2.81997e-15 158.732 -49
vt -1.11022e-16 2.27384
vt -1.11022e-16 2.25329
f 101/232/6 102/233/7 122/234/7 121/235/6 

vt 0.787402 0.609214
vt 0.787402 0.629769
v 2.81997e-15 158.932 -48.5176
vt -1.11022e-16 0.629769
vt -1.11022e-16 0.609214
f 102/236/7 103/237/8 123/238/8 122/239/7 

vt 0.787402 -1.07708
vt 0.787402 -1.05652
vn 0 1 -6.99877e-16
v 2.81997e-15 159 -48
vt -1.11022e-16 -1.05652
vt -1.11022e-16 -1.07708
f 103/240/8 104/241/33 124/242/33 123/243/8 

vt -0.787402 2.69067
vt -0.787402 2.67011
vt 1.11022e-16 2.67011
vt 1.11022e-16 2.69067
f 104/244/33 105/245/12 79/246/12 124/247/33 

vt -0.787402 4.1216
vt -0.787402 4.10104
vt 1.11022e-16 4.10104
vt 1.11022e-16 4.1216
f 105/248/12 106/249/13 78/250/13 79/251/12 

vt -0.787402 5.27234
vt -0.787402 5.25179
vt 1.11022e-16 5.25179
vt 1.11022e-16 5.27234
f 106/252/13 107/253/14 77/254/14 78/255/13 

vt -0.787402 6.06449
vt -0.787402 6.04394
vt 1.11022e-16 6.04394
vt 1.11022e-16 6.06449
f 107/256/14 108/257/15 76/258/15 77/259/14 

vt -0.787402 6.44405
vt -0.787402 6.4235
vt 1.11022e-16 6.4235
vt 1.11022e-16 6.44405
f 108/260/15 109/261/16 74/262/16 76/263/15 

vt -0.787402 6.38516
vt -0.787402 6.36461
vt 1.11022e-16 6.36461
vt 1.11022e-16 6.38516
f 109/264/16 110/265/17 73/266/17 74/267/16 

vt -0.787402 6.1811
vt -0.787402 0.787402
vt 1.11022e-16 0.787402
vt 1.11022e-16 6.1811
f 110/268/18 111/269/18 72/270/18 73/271/18 

vt -1.88976 6.25984
f 79/154/11 80/155/11 124/272/11

vt -1.91014 6.25716
f 124/272/11 80/155/11 123/273/11

vt -1.92913 6.24929
f 123/273/11 80/155/11 122/274/11

vt -1.94544 6.23678
f 122/274/11 80/155/11 121/275/11

vt -1.95795 6.22047
f 121/275/11 80/155/11 120/276/11

vt -1.96582 6.20148
f 120/276/11 80/155/11 119/277/11

vt -1.9685 6.1811
f 119/277/11 80/155/11 118/278/11

vt -1.9685 0.787402
f 118/278/11 80/155/11 117/279/11

f 64/72/11 117/279/11 80/155/11

vt -1.96582 0.767022
f 64/72/11 116/280/11 117/279/11

vt -1.95795 0.748031
f 64/72/11 115/281/11 116/280/11

vt -1.94544 0.731724
f 64/72/11 114/282/11 115/281/11

vt -1.92913 0.719211
f 64/72/11 113/283/11 114/282/11

f 64/72/11 112/73/11 113/283/11

f 64/72/11 66/71/11 112/73/11

vt -0.787402 0
vt -0.787402 6.5748
f 90/284/18 63/6/18 64/64/18 80/12/18 82/285/18 

f 3/3/10 83/6/10 65/64/10 41/160/10 

vt 6.61417 6.5748
vt 5.82677 6.5748
f 3/159/18 2/156/18 10/286/18 61/287/18 41/163/18 

f 42/72/11 48/279/11 62/155/11

f 42/72/11 47/280/11 48/279/11

f 42/72/11 46/281/11 47/280/11

f 42/72/11 45/282/11 46/281/11

f 42/72/11 44/283/11 45/282/11

f 42/72/11 43/73/11 44/283/11

f 49/278/11 62/155/11 48/279/11

f 50/277/11 62/155/11 49/278/11

f 51/276/11 62/155/11 50/277/11

f 52/275/11 62/155/11 51/276/11

f 53/274/11 62/155/11 52/275/11

f 54/273/11 62/155/11 53/274/11

f 55/272/11 62/155/11 54/273/11

f 56/154/11 62/155/11 55/272/11

